<svg xmlns="http://www.w3.org/2000/svg" width="256" height="256" viewBox="0 0 256 256">
<g>
<path d="M 40.02 150.75 C40.01,203.14 39.66,245.96 39.25,245.91 C38.84,245.86 36.33,245.23 33.69,244.50 C20.72,240.93 10.41,232.31 4.70,220.26 L 1.50 213.50 L 1.22 126.50 C1.04,69.36 1.30,37.84 1.98,34.68 C4.62,22.33 13.21,11.45 24.76,5.80 L 31.50 2.50 L 215.50 2.50 L 221.00 5.37 C228.76,9.41 234.22,14.11 237.98,19.96 C241.07,24.79 245.00,35.34 245.00,38.84 C245.00,40.38 238.07,40.48 151.39,40.24 C89.12,40.07 56.50,40.33 53.94,41.02 C48.86,42.38 44.15,46.47 41.88,51.46 C40.14,55.29 40.04,60.50 40.02,150.75 ZM 85.73 132.25 C86.39,139.96 86.30,142.00 85.28,142.00 C84.27,142.00 84.00,136.04 84.00,113.50 L 84.00 85.00 L 164.25 85.24 L 244.50 85.47 L 169.50 85.99 C93.73,86.51 91.20,86.63 88.30,90.15 C86.52,92.29 84.76,121.10 85.73,132.25 ZM 86.77 194.50 C86.30,196.15 85.55,208.07 85.11,221.00 L 84.32 244.50 L 84.00 187.00 L 115.17 187.00 C132.31,187.00 146.08,187.26 145.76,187.57 C145.45,187.89 133.50,188.29 119.22,188.46 C90.60,188.81 88.28,189.24 86.77,194.50 ZM 164.11 211.89 C162.68,212.89 160.38,214.28 159.00,214.98 C154.72,217.13 158.54,213.95 168.00,207.47 C205.33,181.92 225.09,169.16 219.61,174.14 C216.38,177.09 212.08,180.41 210.07,181.51 C208.06,182.62 205.14,184.53 203.58,185.76 C202.01,186.99 200.12,188.00 199.37,188.00 C198.61,188.00 198.00,188.44 198.00,188.97 C198.00,189.51 196.63,190.66 194.95,191.53 C193.27,192.40 191.13,193.80 190.20,194.64 C189.26,195.48 185.35,198.13 181.50,200.53 C177.65,202.93 173.30,205.81 171.84,206.94 C170.38,208.07 168.67,209.00 168.03,209.00 C167.40,209.00 167.20,209.56 167.60,210.25 C168.00,210.94 167.96,211.18 167.52,210.78 C167.08,210.38 165.55,210.88 164.11,211.89 Z" fill="rgb(3,63,98)"/>
<path d="M 215.58 243.58 L 208.91 246.00 L 92.74 246.00 L 93.46 227.25 C94.26,206.44 95.08,203.14 100.16,200.05 C104.41,197.46 108.58,196.90 125.14,196.68 C137.31,196.52 139.01,196.71 140.89,198.41 C143.33,200.61 144.77,205.37 145.14,212.50 C145.29,215.25 145.89,217.99 146.47,218.59 C151.42,223.66 164.25,222.98 172.71,217.21 C174.25,216.17 177.60,214.00 180.18,212.41 C188.93,206.96 207.50,194.36 209.05,192.81 C209.90,191.96 212.15,190.46 214.05,189.49 C221.38,185.73 229.83,176.70 231.04,171.33 C232.43,165.14 229.64,161.54 217.00,153.22 C212.32,150.14 205.74,145.46 202.36,142.81 C198.98,140.16 195.79,138.00 195.28,138.00 C193.95,138.00 184.66,131.83 183.72,130.32 C182.62,128.55 172.57,122.00 170.96,122.00 C170.23,122.00 168.70,121.19 167.56,120.20 C163.75,116.86 153.52,111.36 150.86,111.20 C149.40,111.11 147.70,111.66 147.07,112.42 C146.44,113.17 145.55,119.24 145.09,125.90 C144.60,132.87 143.72,138.64 143.00,139.50 C141.97,140.75 138.18,141.00 120.57,141.00 C118.83,141.00 117.21,141.01 115.70,141.01 C104.20,141.05 98.97,141.07 96.67,138.48 C94.75,136.33 94.86,132.37 95.07,125.12 C95.10,123.97 95.13,122.75 95.16,121.43 L 95.50 106.11 L 99.00 102.47 C105.34,95.88 106.12,95.70 131.00,95.27 C143.38,95.06 173.30,94.52 197.50,94.08 C240.86,93.30 241.53,93.31 243.29,95.30 C244.97,97.19 245.06,100.80 244.79,155.41 L 244.50 213.50 L 242.18 218.96 C237.09,230.96 228.53,238.88 215.58,243.58 Z" fill="rgb(5,163,215)"/>
<path d="M 85.73 132.25 C84.76,121.10 86.52,92.29 88.30,90.15 C91.20,86.63 93.73,86.51 169.50,85.99 L 244.50 85.47 L 164.25 85.24 L 84.00 85.00 L 84.00 84.00 L 245.07 84.00 L 244.90 121.62 C244.90,98.99 244.52,96.69 243.29,95.30 C241.53,93.31 240.86,93.30 197.50,94.08 C173.30,94.52 143.38,95.06 131.00,95.27 C106.12,95.70 105.34,95.88 99.00,102.47 L 95.50 106.11 L 95.16 121.43 C95.13,122.75 95.10,123.97 95.07,125.12 C94.86,132.37 94.75,136.33 96.67,138.48 C98.97,141.07 104.20,141.05 115.70,141.01 C117.21,141.01 118.83,141.00 120.57,141.00 C138.18,141.00 141.97,140.75 143.00,139.50 C143.72,138.64 144.60,132.87 145.09,125.90 C145.55,119.24 146.44,113.17 147.07,112.42 C147.12,112.36 147.17,112.31 147.22,112.26 C146.20,114.22 146.00,118.91 146.00,128.12 L 146.00 143.00 L 84.00 143.00 L 84.00 113.50 C84.00,136.04 84.27,142.00 85.28,142.00 C86.30,142.00 86.39,139.96 85.73,132.25 ZM 86.77 194.50 C88.28,189.24 90.60,188.81 119.22,188.46 C133.50,188.29 145.45,187.89 145.76,187.57 C146.08,187.26 132.31,187.00 115.17,187.00 L 146.00 187.00 L 146.00 201.96 C146.00,216.04 146.12,217.00 148.05,218.03 C149.79,218.96 151.25,218.39 157.53,214.31 C161.19,211.94 166.95,208.11 173.54,203.68 C171.74,204.91 169.89,206.17 168.00,207.47 C158.54,213.95 154.72,217.13 159.00,214.98 C160.38,214.28 162.68,212.89 164.11,211.89 C165.55,210.88 167.08,210.38 167.52,210.78 C167.96,211.18 168.00,210.94 167.60,210.25 C167.20,209.56 167.40,209.00 168.03,209.00 C168.67,209.00 170.38,208.07 171.84,206.94 C173.30,205.81 177.65,202.93 181.50,200.53 C185.35,198.13 189.26,195.48 190.20,194.64 C191.13,193.80 193.27,192.40 194.95,191.53 C196.63,190.66 198.00,189.51 198.00,188.97 C198.00,188.44 198.61,188.00 199.37,188.00 C200.12,188.00 202.01,186.99 203.58,185.76 C205.14,184.53 208.06,182.62 210.07,181.51 C212.08,180.41 216.38,177.09 219.61,174.14 C223.51,170.60 214.62,176.04 195.71,188.69 C207.14,180.91 217.20,173.97 220.25,171.72 C229.24,165.07 229.20,163.74 219.75,157.50 C215.76,154.87 199.35,143.77 183.27,132.85 C167.20,121.92 152.93,112.47 151.55,111.84 C150.94,111.56 150.40,111.35 149.92,111.22 C150.23,111.19 150.55,111.18 150.86,111.20 C153.52,111.36 163.75,116.86 167.56,120.20 C168.70,121.19 170.23,122.00 170.96,122.00 C172.57,122.00 182.62,128.55 183.72,130.32 C184.66,131.83 193.95,138.00 195.28,138.00 C195.79,138.00 198.98,140.16 202.36,142.81 C205.74,145.46 212.32,150.14 217.00,153.22 C229.64,161.54 232.43,165.14 231.04,171.33 C229.83,176.70 221.38,185.73 214.05,189.49 C212.15,190.46 209.90,191.96 209.05,192.81 C207.50,194.36 188.93,206.96 180.18,212.41 C177.60,214.00 174.25,216.17 172.71,217.21 C164.25,222.98 151.42,223.66 146.47,218.59 C145.89,217.99 145.29,215.25 145.14,212.50 C144.77,205.37 143.33,200.61 140.89,198.41 C139.01,196.71 137.31,196.52 125.14,196.68 C108.58,196.90 104.41,197.46 100.16,200.05 C95.08,203.14 94.26,206.44 93.46,227.25 L 92.74 246.00 L 84.00 246.00 L 84.00 187.00 L 84.32 244.50 L 85.11 221.00 C85.55,208.07 86.30,196.15 86.77,194.50 ZM 0.02 231.75 L 0.00 256.00 L 0.00 19.67 C0.00,30.48 0.26,39.07 0.59,38.74 C0.91,38.42 1.60,36.26 2.12,33.94 C3.34,28.53 5.83,23.32 9.25,18.74 C5.73,23.48 3.21,28.92 1.98,34.68 C1.30,37.84 1.04,69.36 1.22,126.50 L 1.49 210.03 C1.34,209.63 1.18,209.27 1.00,209.00 C0.36,208.01 0.03,215.72 0.02,231.75 ZM 39.27 245.87 C39.68,244.30 40.01,202.13 40.02,150.77 L 40.00 246.04 ZM 10.45 229.44 C15.01,235.07 20.84,239.48 27.61,242.38 C21.61,239.93 16.95,236.65 12.56,231.96 C11.88,231.23 11.17,230.38 10.45,229.44 Z" fill="rgb(21,119,156)"/>
<path d="M 0.02 231.75 C0.03,215.72 0.36,208.01 1.00,209.00 C1.53,209.82 1.98,211.40 1.99,212.50 C2.02,216.18 7.86,226.94 12.56,231.96 C19.04,238.89 26.12,242.74 37.25,245.38 L 40.00 246.04 L 40.02 150.77 C40.04,60.50 40.14,55.29 41.88,51.46 C44.15,46.47 48.86,42.38 53.94,41.02 C56.50,40.33 89.12,40.07 151.39,40.24 C238.07,40.48 245.00,40.38 245.00,38.84 C245.00,35.34 241.07,24.79 237.98,19.96 C234.22,14.11 228.76,9.41 221.00,5.37 L 215.50 2.50 L 123.50 2.50 L 31.50 2.50 L 24.76 5.80 C13.47,11.32 4.78,22.13 2.12,33.94 C1.60,36.26 0.91,38.42 0.59,38.74 C0.26,39.07 0.00,30.48 0.00,19.67 L 0.00 0.00 L 128.00 0.00 L 256.00 0.00 L 256.00 128.00 L 256.00 256.00 L 128.00 256.00 L 0.00 256.00 L 0.02 231.75 ZM 215.58 243.58 C228.53,238.88 237.09,230.96 242.18,218.96 L 244.50 213.50 L 244.78 148.75 L 245.07 84.00 L 164.53 84.00 L 84.00 84.00 L 84.00 113.50 L 84.00 143.00 L 115.00 143.00 L 146.00 143.00 L 146.00 128.12 C146.00,111.54 146.66,109.61 151.55,111.84 C152.93,112.47 167.20,121.92 183.27,132.85 C199.35,143.77 215.76,154.87 219.75,157.50 C229.20,163.74 229.24,165.07 220.25,171.72 C213.39,176.79 171.05,205.54 157.53,214.31 C151.25,218.39 149.79,218.96 148.05,218.03 C146.12,217.00 146.00,216.04 146.00,201.96 L 146.00 187.00 L 115.00 187.00 L 84.00 187.00 L 84.00 216.50 L 84.00 246.00 L 146.45 246.00 L 208.91 246.00 L 215.58 243.58 Z" fill="rgb(238,244,250)"/>
</g>
</svg>